<svg xmlns="http://www.w3.org/2000/svg" xmlns:xlink="http://www.w3.org/1999/xlink" version="1.1" x="0px" y="0px" viewBox="0 0 24 24" style="enable-background:new 0 0 24 24;" xml:space="preserve" width="50px" height="50px">
<g id="Sharp_3_">
	<path d="M12,4c-4.418,0-8,3.582-8,8s3.582,8,8,8s8-3.582,8-8S16.418,4,12,4z M12,16c-2.209,0-4-1.791-4-4c0-2.209,1.791-4,4-4   s4,1.791,4,4C16,14.209,14.209,16,12,16z" fill="#fff"/>
	<polygon points="14.917,5 14.333,2 9.667,2 9.083,5 " fill="#fff"/>
	<polygon points="9.083,19 9.667,22 14.333,22 14.917,19  " fill="#fff"/>
	<polygon points="7.396,5.974 4.506,4.979 2.173,9.021 4.479,11.026  " fill="#fff"/>
	<polygon points="16.604,18.026 19.494,19.021 21.827,14.979 19.521,12.974  " fill="#fff"/>
	<polygon points="4.479,12.974 2.173,14.979 4.506,19.021 7.396,18.026  " fill="#fff"/>
	<polygon points="19.521,11.026 21.827,9.021 19.494,4.979 16.604,5.974  " fill="#fff"/>
</g>
</svg>